<svg width="287" height="223" viewBox="0 0 287 223" fill="none" xmlns="http://www.w3.org/2000/svg">
<g filter="url(#filter0_d)">
<path d="M11 73.9436L145.871 1L276 73.9436L145.871 202L11 73.9436Z" fill="#B40081"/>
<path d="M11 73.9436L145.871 1L276 73.9436L145.871 202L11 73.9436Z" fill="url(#paint0_linear)"/>
<path d="M11 73.9436L145.871 1L276 73.9436L145.871 202L11 73.9436Z" stroke="black"/>
<path fill-rule="evenodd" clip-rule="evenodd" d="M145.5 6L17 74L145.5 193L270 74L145.5 6ZM47 79L136.5 29V107L118 90.5V55L79 79L136.5 133.5V164.5L47 79Z" fill="black" stroke="black"/>
<path d="M154.5 28.5V163.5L238.5 78.5L199.5 59L184.5 84.5L208 78.5L199.5 100L172.5 125V59L184.5 47L154.5 28.5Z" fill="#B40081"/>
<path d="M154.5 28.5V163.5L238.5 78.5L199.5 59L184.5 84.5L208 78.5L199.5 100L172.5 125V59L184.5 47L154.5 28.5Z" fill="url(#paint1_linear)"/>
<path d="M154.5 28.5V163.5L238.5 78.5L199.5 59L184.5 84.5L208 78.5L199.5 100L172.5 125V59L184.5 47L154.5 28.5Z" stroke="black"/>
</g>
<defs>
<filter id="filter0_d" x="0.155945" y="0.42923" width="286.669" height="222.266" filterUnits="userSpaceOnUse" color-interpolation-filters="sRGB">
<feFlood flood-opacity="0" result="BackgroundImageFix"/>
<feColorMatrix in="SourceAlpha" type="matrix" values="0 0 0 0 0 0 0 0 0 0 0 0 0 0 0 0 0 0 127 0"/>
<feOffset dy="10"/>
<feGaussianBlur stdDeviation="5"/>
<feColorMatrix type="matrix" values="0 0 0 0 0 0 0 0 0 0 0 0 0 0 0 0 0 0 1 0"/>
<feBlend mode="normal" in2="BackgroundImageFix" result="effect1_dropShadow"/>
<feBlend mode="normal" in="SourceGraphic" in2="effect1_dropShadow" result="shape"/>
</filter>
<linearGradient id="paint0_linear" x1="149" y1="41" x2="143.5" y2="202" gradientUnits="userSpaceOnUse">
<stop stop-color="#1B0068"/>
<stop offset="1" stop-color="white" stop-opacity="0"/>
</linearGradient>
<linearGradient id="paint1_linear" x1="145" y1="55" x2="196.5" y2="163.5" gradientUnits="userSpaceOnUse">
<stop stop-color="#1B0068"/>
<stop offset="1" stop-color="white" stop-opacity="0"/>
</linearGradient>
</defs>
</svg>
